<svg width="22" height="22" viewBox="0 0 22 22" fill="none" xmlns="http://www.w3.org/2000/svg">
<path d="M17.1406 10.1406H2.94088L5.95574 7.14037C6.29215 6.80556 6.29343 6.26145 5.95862 5.92504C5.62381 5.5886 5.07965 5.58735 4.74325 5.92212L0.252844 10.3909L0.252071 10.3917C-0.083472 10.7265 -0.0845462 11.2724 0.251985 11.6083L0.252758 11.6091L4.74317 16.0779C5.07952 16.4126 5.62368 16.4114 5.95854 16.0749C6.29335 15.7385 6.29206 15.1944 5.95566 14.8596L2.94088 11.8594H17.1406C17.6153 11.8594 18 11.4746 18 11C18 10.5254 17.6153 10.1406 17.1406 10.1406Z" fill="black"/>
</svg>
